HIERARCHY
ROOT Torso
{
	OFFSET 0.000000 0.000000 0.000000
	CHANNELS 6 Xposition Yposition Zposition Zrotation Yrotation Xrotation
	JOINT LHip
	{
		OFFSET 0.000000 0.010000 -0.060000
		CHANNELS 6 Xposition Yposition Zposition Zrotation Yrotation Xrotation
		JOINT LeftThigh
		{
			OFFSET 0.055000 0.000000 -0.055000
			CHANNELS 6 Xposition Yposition Zposition Zrotation Yrotation Xrotation
			JOINT LeftLeg
			{
				OFFSET 0.000000 -0.015000 -0.120000
				CHANNELS 6 Xposition Yposition Zposition Zrotation Yrotation Xrotation
				JOINT LeftFoot
				{
					OFFSET 0.000000 0.010000 -0.100000
					CHANNELS 6 Xposition Yposition Zposition Zrotation Yrotation Xrotation
					End Site
					{
						OFFSET 0.000000 -0.090000 -0.035000
					}
				}
			}
		}
	}
	JOINT RHip
	{
		OFFSET 0.000000 0.010000 -0.060000
		CHANNELS 6 Xposition Yposition Zposition Zrotation Yrotation Xrotation
		JOINT RightThigh
		{
			OFFSET -0.055000 0.000000 -0.055000
			CHANNELS 6 Xposition Yposition Zposition Zrotation Yrotation Xrotation
			JOINT RightLeg
			{
				OFFSET 0.000000 -0.015000 -0.120000
				CHANNELS 6 Xposition Yposition Zposition Zrotation Yrotation Xrotation
				JOINT RightFoot
				{
					OFFSET 0.000000 0.010000 -0.100000
					CHANNELS 6 Xposition Yposition Zposition Zrotation Yrotation Xrotation
					End Site
					{
						OFFSET 0.000000 -0.090000 -0.035000
					}
				}
			}
		}
	}
	JOINT Neck
	{
		OFFSET 0.000000 -0.000000 0.040000
		CHANNELS 6 Xposition Yposition Zposition Zrotation Yrotation Xrotation
		JOINT Head
		{
			OFFSET 0.000000 -0.000000 0.100000
			CHANNELS 6 Xposition Yposition Zposition Zrotation Yrotation Xrotation
			End Site
			{
				OFFSET 0.000000 -0.000000 0.070000
			}
		}
	}
	JOINT LeftUpperarm
	{
		OFFSET 0.098000 -0.000000 0.075000
		CHANNELS 6 Xposition Yposition Zposition Zrotation Yrotation Xrotation
		JOINT LeftLowerarm
		{
			OFFSET 0.000000 -0.090000 0.009000
			CHANNELS 6 Xposition Yposition Zposition Zrotation Yrotation Xrotation
			End Site
			{
				OFFSET 0.000000 -0.105000 0.000000
			}
		}
	}
	JOINT RightUpperarm
	{
		OFFSET -0.098000 -0.000000 0.075000
		CHANNELS 6 Xposition Yposition Zposition Zrotation Yrotation Xrotation
		JOINT RightLowerarm
		{
			OFFSET 0.000000 -0.090000 0.009000
			CHANNELS 6 Xposition Yposition Zposition Zrotation Yrotation Xrotation
			End Site
			{
				OFFSET 0.000000 -0.105000 0.000000
			}
		}
	}
}
MOTION
Frames: 5
Frame Time: 0.041667
0.000000 0.000000 0.000000 0.000000 -0.000000 15.945396 0.000001 0.010003 -0.060002 -60.465486 -11.357544 18.464356 0.054998 0.000000 -0.054998 -121.601710 -22.533313 22.785267 0.000000 -0.015000 -0.120000 -0.000002 0.000034 -12.835626 -0.000000 0.010000 -0.100000 -175.577949 25.482420 -11.060377 -0.000000 0.009996 -0.060002 70.434249 7.509027 23.053524 -0.055000 0.000000 -0.054999 111.663068 25.113303 24.325623 0.000000 -0.015001 -0.119999 0.000002 0.000027 -12.835621 0.000000 0.010000 -0.100000 172.812583 -27.120999 -5.787642 -0.000002 0.000000 0.040000 -0.487108 0.914753 -24.124752 0.000000 0.000000 0.100000 0.089802 -0.984512 18.046690 0.098000 -0.000000 0.075000 62.906787 107.793048 -20.260382 0.000002 -0.089998 0.009000 -0.000006 0.000006 -5.710601 -0.098002 -0.000000 0.075000 -62.906753 -107.793055 -20.260424 0.000000 -0.090000 0.009000 -0.000001 0.000005 -5.710587 
0.000000 0.000000 0.000000 85.867704 -2.409877 15.950852 0.000002 0.009998 -0.060001 -60.465500 -11.357566 18.464347 0.055000 0.000002 -0.055002 -119.906785 -19.943905 10.123350 0.000000 -0.014996 -0.120000 0.000050 0.000039 -11.177494 -0.000000 0.009998 -0.100001 -168.951464 27.034925 -24.321175 -0.000002 0.010000 -0.059998 70.434277 7.509066 23.053524 -0.055000 0.000002 -0.055002 103.061250 18.753104 11.913486 -0.000001 -0.014998 -0.120000 0.000032 0.000052 -15.285063 0.000001 0.010000 -0.100000 173.950807 -28.672998 -23.347386 -0.000000 -0.000000 0.040002 5.985890 2.214087 -24.987122 0.000000 -0.000002 0.100000 5.125157 1.904994 23.467331 0.098000 -0.000000 0.074998 -37.628950 173.460618 -76.696741 -0.000000 -0.090003 0.008998 -11.061165 0.762304 13.570913 -0.098000 -0.000000 0.075000 41.013455 -170.319851 -82.399354 0.000001 -0.090000 0.008998 13.404744 -1.419104 17.742823 
0.000000 0.000000 0.000000 85.795803 -2.328416 15.972577 0.000003 0.009998 -0.060000 -60.465493 -11.357568 18.464356 0.055000 0.000002 -0.054999 -119.761275 -19.817218 10.076582 0.000000 -0.015002 -0.120000 -0.000023 0.000028 -11.166289 0.000000 0.010000 -0.100000 -169.053507 27.026961 -24.415249 -0.000003 0.010000 -0.060000 70.434249 7.509045 23.053511 -0.055000 -0.000004 -0.055000 103.324575 18.862351 11.981832 0.000001 -0.015000 -0.120000 0.000021 0.000017 -15.200174 -0.000001 0.010002 -0.099999 173.772566 -28.691302 -23.368463 0.000000 0.000004 0.040000 6.023162 2.165398 -24.968641 0.000000 0.000004 0.100002 5.190460 1.812373 23.329355 0.098000 0.000000 0.075000 -37.097930 173.435237 -76.697246 -0.000002 -0.090002 0.008998 -10.969429 0.740337 13.408922 -0.098002 0.000000 0.074998 40.781116 -170.335533 -82.276425 -0.000001 -0.089999 0.009000 13.363723 -1.406025 17.669194 
0.000000 0.000000 0.000000 85.679061 -2.281558 16.181481 0.000000 0.010000 -0.060000 -60.465500 -11.357574 18.464349 0.054999 -0.000004 -0.054998 -119.756985 -19.789377 10.261355 0.000000 -0.014998 -0.120001 0.000012 0.000058 -11.126411 -0.000000 0.010000 -0.099999 -168.993565 27.033805 -24.461785 -0.000000 0.010000 -0.060003 70.434249 7.509043 23.053524 -0.055000 0.000002 -0.055001 103.316091 18.921139 12.241345 -0.000000 -0.015002 -0.120000 -0.000009 -0.000008 -15.236359 0.000001 0.009998 -0.100001 173.832126 -28.683902 -23.319717 0.000000 -0.000000 0.039997 6.130177 2.256680 -25.082015 0.000000 -0.000000 0.100000 5.163437 1.618981 23.155999 0.097998 -0.000000 0.075000 -36.741199 173.282787 -76.568811 -0.000000 -0.090000 0.009000 -10.949348 0.735466 13.373375 -0.098002 -0.000000 0.074998 40.433757 -170.208191 -82.030401 0.000000 -0.090001 0.009000 13.360186 -1.404819 17.662905 
0.000000 0.000000 0.000000 85.610882 -2.288346 16.054001 0.000001 0.010000 -0.059999 -60.465500 -11.357564 18.464346 0.055000 -0.000002 -0.054999 -119.777476 -19.826388 10.071900 0.000000 -0.015000 -0.120001 -0.000037 0.000014 -11.042006 -0.000001 0.010002 -0.100000 -168.920782 27.040039 -24.417137 0.000001 0.009998 -0.060001 70.434277 7.509058 23.053516 -0.054999 -0.000002 -0.054998 102.963264 18.848085 12.014973 -0.000000 -0.015000 -0.120000 -0.000006 0.000062 -15.277955 -0.000001 0.010002 -0.100001 174.058615 -28.656612 -23.171321 0.000000 -0.000004 0.039999 6.208665 2.271612 -24.881052 -0.000000 -0.000002 0.100000 5.136361 1.562341 23.059671 0.097998 -0.000000 0.074998 -36.897375 173.317116 -76.788026 0.000002 -0.089997 0.009002 -10.932997 0.731592 13.344405 -0.098000 0.000000 0.075002 40.443015 -170.254992 -82.189872 -0.000000 -0.090000 0.009000 13.388171 -1.413848 17.713187 
